<?xml version="1.0" encoding="UTF-8" standalone="no"?>
<!-- Created by diasvg.py -->
<svg width="137.277cm" height="48.617cm" viewBox="-0.170 -0.517 137.106 48.100"
 xmlns="http://www.w3.org/2000/svg"
 xmlns:xlink="http://www.w3.org/1999/xlink">
<rect x="41.884" y="15.870" width="8.560" height="1.950" fill="#FFFFFF" stroke="none" stroke-width="0"/>
<rect x="41.884" y="15.870" width="8.560" height="1.950" fill="none" stroke="#00FF00" stroke-width="0.150" />
<text x="46.164" y="17.040"  fill="#000000" text-anchor="middle" font-size="0.80" font-family="sans" font-style="normal" font-weight="400">
get_dispatcher(id,con)</text>
<line x1="41.884" y1="16.845" x2="31.523" y2="16.999" stroke="#000000" stroke-width="0.150" />
<polygon fill="#000000" stroke="none" stroke-width="0.150" points="31.519,16.749 31.023,17.007 31.526,17.249 "/>
<polygon fill="none" stroke="#000000" stroke-width="0.150"  points="31.519,16.749 31.023,17.007 31.526,17.249 "/>
<rect x="73.948" y="8.966" width="7.000" height="2.000" fill="#FFFFFF" stroke="none" stroke-width="0"/>
<rect x="73.948" y="8.966" width="7.000" height="2.000" fill="none" stroke="#0000FF" stroke-width="0.150" />
<text x="77.448" y="10.161"  fill="#000000" text-anchor="middle" font-size="0.80" font-family="sans" font-style="normal" font-weight="400">
sendMessage</text>
<rect x="79.038" y="15.261" width="12.958" height="3.739" fill="#FFFFFF" stroke="none" stroke-width="0"/>
<rect x="79.038" y="15.261" width="12.958" height="3.739" fill="none" stroke="#0000FF" stroke-width="0.150" />
<text x="85.517" y="17.326"  fill="#000000" text-anchor="middle" font-size="0.80" font-family="sans" font-style="normal" font-weight="400">
libwebsockets</text>
<line x1="85.517" y1="19.000" x2="85.383" y2="23.676" stroke="#000000" stroke-width="0.150" />
<polygon fill="#000000" stroke="none" stroke-width="0.150" points="85.133,23.669 85.368,24.176 85.633,23.684 "/>
<polygon fill="none" stroke="#000000" stroke-width="0.150"  points="85.133,23.669 85.368,24.176 85.633,23.684 "/>
<rect x="78.619" y="24.326" width="13.434" height="1.950" fill="#FFFFFF" stroke="none" stroke-width="0"/>
<rect x="78.619" y="24.326" width="13.434" height="1.950" fill="none" stroke="#000000" stroke-width="0.150" />
<text x="85.336" y="25.496"  fill="#000000" text-anchor="middle" font-size="0.80" font-family="sans" font-style="normal" font-weight="400">
calback_property_protocol</text>
<rect x="63.802" y="31.641" width="10.773" height="1.950" fill="#FFFFFF" stroke="none" stroke-width="0"/>
<rect x="63.802" y="31.641" width="10.773" height="1.950" fill="none" stroke="#00FF00" stroke-width="0.150" />
<text x="69.188" y="32.811"  fill="#000000" text-anchor="middle" font-size="0.80" font-family="sans" font-style="normal" font-weight="400">
message_get_query_decoder</text>
<line x1="63.802" y1="32.616" x2="61.998" y2="32.731" stroke="#000000" stroke-width="0.150" />
<polygon fill="#000000" stroke="none" stroke-width="0.150" points="61.982,32.481 61.499,32.762 62.014,32.980 "/>
<polygon fill="none" stroke="#000000" stroke-width="0.150"  points="61.982,32.481 61.499,32.762 62.014,32.980 "/>
<rect x="93.329" y="22.375" width="12.058" height="4.000" fill="#FFFFFF" stroke="none" stroke-width="0"/>
<rect x="93.329" y="22.375" width="12.058" height="4.000" fill="none" stroke="#0000FF" stroke-width="0.150" />
<text x="99.358" y="24.570"  fill="#000000" text-anchor="middle" font-size="0.80" font-family="sans" font-style="normal" font-weight="400">
Browser (whit websocket support)</text>
<rect x="64.032" y="4.732" width="10.908" height="1.950" fill="#FFFFFF" stroke="none" stroke-width="0"/>
<rect x="64.032" y="4.732" width="10.908" height="1.950" fill="none" stroke="#00FF00" stroke-width="0.150" />
<text x="69.486" y="5.902"  fill="#000000" text-anchor="middle" font-size="0.80" font-family="sans" font-style="normal" font-weight="400">
message_get_update_encoder</text>
<polyline fill="none" stroke="#000000" stroke-width="0.150"  points="61.282,32.767 46.164,32.767 46.164,18.470 "/>
<polygon fill="#000000" stroke="none" stroke-width="0.150" points="46.414,18.470 46.164,17.970 45.914,18.470 "/>
<polygon fill="none" stroke="#000000" stroke-width="0.150"  points="46.414,18.470 46.164,17.970 45.914,18.470 "/>
<rect x="2.556" y="1.900" width="6.955" height="1.950" fill="#FFFFFF" stroke="none" stroke-width="0"/>
<rect x="2.556" y="1.900" width="6.955" height="1.950" fill="none" stroke="#000000" stroke-width="0.150" />
<text x="6.034" y="3.070"  fill="#000000" text-anchor="middle" font-size="0.80" font-family="sans" font-style="normal" font-weight="400">
wolf_register()</text>
<line x1="0.556" y1="2.900" x2="1.981" y2="2.882" stroke="#000000" stroke-width="0.150" />
<polygon fill="#000000" stroke="none" stroke-width="0.150" points="1.985,3.132 2.481,2.876 1.978,2.632 "/>
<polygon fill="none" stroke="#000000" stroke-width="0.150"  points="1.985,3.132 2.481,2.876 1.978,2.632 "/>
<line x1="30.594" y1="16.796" x2="17.349" y2="16.837" stroke="#000000" stroke-width="0.150" />
<polygon fill="#000000" stroke="none" stroke-width="0.150" points="17.349,16.587 16.849,16.839 17.350,17.087 "/>
<polygon fill="none" stroke="#000000" stroke-width="0.150"  points="17.349,16.587 16.849,16.839 17.350,17.087 "/>
<rect x="9.111" y="7.082" width="7.992" height="1.950" fill="#FFFFFF" stroke="none" stroke-width="0"/>
<rect x="9.111" y="7.082" width="7.992" height="1.950" fill="none" stroke="#000000" stroke-width="0.150" />
<text x="13.107" y="8.252"  fill="#000000" text-anchor="middle" font-size="0.80" font-family="sans" font-style="normal" font-weight="400">
search(id)</text>
<line x1="9.590" y1="17.839" x2="1.131" y2="17.896" stroke="#000000" stroke-width="0.150" />
<polygon fill="#000000" stroke="none" stroke-width="0.150" points="1.130,17.646 0.631,17.900 1.133,18.146 "/>
<polygon fill="none" stroke="#000000" stroke-width="0.150"  points="1.130,17.646 0.631,17.900 1.133,18.146 "/>
<path stroke="none" fill="#FFFFFF" stroke-width="0.150" d="M 2.632,10.501 C 3.964,9.927 4.630,9.735 5.963,9.735 C 7.295,9.735 7.962,9.927 9.294,10.501 L 9.294,13.565 C 7.962,14.140 7.295,14.331 5.963,14.331 C 4.630,14.331 3.964,14.140 2.632,13.565 L 2.632,10.501 "/>
<path stroke="#000000" fill="none" stroke-width="0.150"  d="M 2.632,10.501 C 3.964,9.927 4.630,9.735 5.963,9.735 C 7.295,9.735 7.962,9.927 9.294,10.501 L 9.294,13.565 C 7.962,14.140 7.295,14.331 5.963,14.331 C 4.630,14.331 3.964,14.140 2.632,13.565 L 2.632,10.501 "/>
<path stroke="#000000" fill="none" stroke-width="0.150"  d="M 2.632,10.501 C 3.964,11.076 4.630,11.267 5.963,11.267 C 7.295,11.267 7.962,11.076 9.294,10.501 "/>
<text x="5.963" y="12.216"  fill="#000000" text-anchor="middle" font-size="0.80" font-family="sans" font-style="normal" font-weight="400">
Property Cache and</text>
<text x="5.963" y="13.016"  fill="#000000" text-anchor="middle" font-size="0.80" font-family="sans" font-style="normal" font-weight="400">
CB table</text>
<line x1="6.026" y1="3.924" x2="5.981" y2="9.660" stroke="#000000" stroke-width="0.150" stroke-dasharray="0.10,0.10"/>
<line x1="61.606" y1="5.814" x2="63.458" y2="5.732" stroke="#000000" stroke-width="0.150" />
<polygon fill="#000000" stroke="none" stroke-width="0.150" points="63.469,5.982 63.957,5.710 63.447,5.483 "/>
<polygon fill="none" stroke="#000000" stroke-width="0.150"  points="63.469,5.982 63.957,5.710 63.447,5.483 "/>
<line x1="7.691" y1="9.851" x2="9.111" y2="8.057" stroke="#000000" stroke-width="0.150" stroke-dasharray="0.10,0.10"/>
<line x1="13.182" y1="17.839" x2="13.120" y2="9.673" stroke="#000000" stroke-width="0.150" />
<polygon fill="#000000" stroke="none" stroke-width="0.150" points="13.370,9.671 13.116,9.173 12.870,9.675 "/>
<polygon fill="none" stroke="#000000" stroke-width="0.150"  points="13.370,9.671 13.116,9.173 12.870,9.675 "/>
<rect x="2.492" y="26.710" width="7.415" height="1.950" fill="#FFFFFF" stroke="none" stroke-width="0"/>
<rect x="2.492" y="26.710" width="7.415" height="1.950" fill="none" stroke="#000000" stroke-width="0.150" />
<text x="6.200" y="27.880"  fill="#000000" text-anchor="middle" font-size="0.80" font-family="sans" font-style="normal" font-weight="400">
wolf_init(port,page)</text>
<rect x="2.298" y="30.165" width="6.955" height="1.950" fill="#FFFFFF" stroke="none" stroke-width="0"/>
<rect x="2.298" y="30.165" width="6.955" height="1.950" fill="none" stroke="#000000" stroke-width="0.150" />
<text x="5.775" y="31.335"  fill="#000000" text-anchor="middle" font-size="0.80" font-family="sans" font-style="normal" font-weight="400">
wolf_start()</text>
<rect x="2.468" y="38.416" width="6.955" height="1.950" fill="#FFFFFF" stroke="none" stroke-width="0"/>
<rect x="2.468" y="38.416" width="6.955" height="1.950" fill="none" stroke="#000000" stroke-width="0.150" />
<text x="5.946" y="39.586"  fill="#000000" text-anchor="middle" font-size="0.80" font-family="sans" font-style="normal" font-weight="400">
wolf_close()</text>
<line x1="0.236" y1="27.752" x2="1.917" y2="27.702" stroke="#000000" stroke-width="0.150" />
<polygon fill="#000000" stroke="none" stroke-width="0.150" points="1.925,27.952 2.417,27.687 1.910,27.452 "/>
<polygon fill="none" stroke="#000000" stroke-width="0.150"  points="1.925,27.952 2.417,27.687 1.910,27.452 "/>
<line x1="0.047" y1="31.221" x2="1.723" y2="31.160" stroke="#000000" stroke-width="0.150" />
<polygon fill="#000000" stroke="none" stroke-width="0.150" points="1.732,31.410 2.223,31.142 1.714,30.911 "/>
<polygon fill="none" stroke="#000000" stroke-width="0.150"  points="1.732,31.410 2.223,31.142 1.714,30.911 "/>
<line x1="-0.094" y1="39.423" x2="1.894" y2="39.398" stroke="#000000" stroke-width="0.150" />
<polygon fill="#000000" stroke="none" stroke-width="0.150" points="1.897,39.648 2.393,39.392 1.890,39.148 "/>
<polygon fill="none" stroke="#000000" stroke-width="0.150"  points="1.897,39.648 2.393,39.392 1.890,39.148 "/>
<rect x="16.720" y="42.982" width="6.955" height="1.950" fill="#FFFFFF" stroke="none" stroke-width="0"/>
<rect x="16.720" y="42.982" width="6.955" height="1.950" fill="none" stroke="#000000" stroke-width="0.150" />
<text x="20.198" y="44.152"  fill="#000000" text-anchor="middle" font-size="0.80" font-family="sans" font-style="normal" font-weight="400">
free_all()</text>
<line x1="9.220" y1="40.440" x2="16.376" y2="42.733" stroke="#000000" stroke-width="0.150" />
<polygon fill="#000000" stroke="none" stroke-width="0.150" points="16.300,42.971 16.852,42.885 16.452,42.494 "/>
<polygon fill="none" stroke="#000000" stroke-width="0.150"  points="16.300,42.971 16.852,42.885 16.452,42.494 "/>
<line x1="61.556" y1="-0.100" x2="61.657" y2="47.897" stroke="#000000" stroke-width="0.200" />
<line x1="30.556" y1="-0.100" x2="30.556" y2="47.900" stroke="#000000" stroke-width="0.400" />
<line x1="0.396" y1="-0.039" x2="0.401" y2="47.758" stroke="#000000" stroke-width="0.400" />
<line x1="92.556" y1="-0.100" x2="92.556" y2="47.900" stroke="#000000" stroke-width="0.400" />
<path stroke="none" fill="#FFFFFF" stroke-width="0.200" d="M 89.816,17.763 C 88.903,17.734 87.133,18.345 87.382,19.656 C 87.631,20.966 88.820,21.257 89.318,20.879 C 89.816,20.500 88.544,22.713 90.978,23.296 C 93.413,23.878 94.657,22.946 94.298,22.277 C 93.938,21.607 96.428,23.849 97.590,22.568 C 98.752,21.287 96.400,20.063 96.898,20.238 C 97.396,20.413 98.918,20.180 98.420,17.996 C 97.922,15.812 93.440,17.501 93.938,17.181 C 94.436,16.860 93.191,15.259 91.642,15.579 C 90.093,15.899 89.983,16.481 89.817,17.762 L 89.816,17.763 "/>
<path stroke="#000000" fill="none" stroke-width="0.200"  d="M 89.816,17.763 C 88.903,17.734 87.133,18.345 87.382,19.656 C 87.631,20.966 88.820,21.257 89.318,20.879 C 89.816,20.500 88.544,22.713 90.978,23.296 C 93.413,23.878 94.657,22.946 94.298,22.277 C 93.938,21.607 96.428,23.849 97.590,22.568 C 98.752,21.287 96.400,20.063 96.898,20.238 C 97.396,20.413 98.918,20.180 98.420,17.996 C 97.922,15.812 93.440,17.501 93.938,17.181 C 94.436,16.860 93.191,15.259 91.642,15.579 C 90.093,15.899 89.983,16.481 89.817,17.762 L 89.816,17.763 "/>
<text x="93.341" y="19.920"  fill="#000000" text-anchor="middle" font-size="0.80" font-family="sans" font-style="normal" font-weight="400">
Networking</text>
<rect x="9.590" y="15.839" width="7.185" height="2.000" fill="#FFFFFF" stroke="none" stroke-width="0"/>
<rect x="9.590" y="15.839" width="7.185" height="2.000" fill="none" stroke="#00FF00" stroke-width="0.150" />
<text x="13.182" y="17.034"  fill="#000000" text-anchor="middle" font-size="0.80" font-family="sans" font-style="normal" font-weight="400">
get_property(id) </text>
<line x1="83.554" y1="26.351" x2="75.070" y2="31.349" stroke="#000000" stroke-width="0.150" />
<polygon fill="#000000" stroke="none" stroke-width="0.150" points="74.943,31.134 74.639,31.603 75.197,31.565 "/>
<polygon fill="none" stroke="#000000" stroke-width="0.150"  points="74.943,31.134 74.639,31.603 75.197,31.565 "/>
<line x1="100.305" y1="22.305" x2="108.992" y2="3.322" stroke="#000000" stroke-width="0.150" />
<polygon fill="#000000" stroke="none" stroke-width="0.150" points="109.220,3.426 109.200,2.868 108.765,3.218 "/>
<polygon fill="none" stroke="#000000" stroke-width="0.150"  points="109.220,3.426 109.200,2.868 108.765,3.218 "/>
<rect x="103.574" y="0.850" width="11.315" height="1.950" fill="#FFFFFF" stroke="none" stroke-width="0"/>
<rect x="103.574" y="0.850" width="11.315" height="1.950" fill="none" stroke="#00FF00" stroke-width="0.150" />
<text x="109.231" y="2.020"  fill="#000000" text-anchor="middle" font-size="0.80" font-family="sans" font-style="normal" font-weight="400">
messageGetUpdateDecoder</text>
<line x1="114.889" y1="1.825" x2="122.714" y2="1.833" stroke="#000000" stroke-width="0.150" />
<polygon fill="#000000" stroke="none" stroke-width="0.150" points="122.714,2.083 123.214,1.834 122.714,1.583 "/>
<polygon fill="none" stroke="#000000" stroke-width="0.150"  points="122.714,2.083 123.214,1.834 122.714,1.583 "/>
<rect x="95.439" y="30.888" width="7.835" height="1.950" fill="#FFFFFF" stroke="none" stroke-width="0"/>
<rect x="95.439" y="30.888" width="7.835" height="1.950" fill="none" stroke="#0000FF" stroke-width="0.150" />
<text x="99.357" y="32.058"  fill="#000000" text-anchor="middle" font-size="0.80" font-family="sans" font-style="normal" font-weight="400">
send</text>
<rect x="105.785" y="34.019" width="10.703" height="1.950" fill="#FFFFFF" stroke="none" stroke-width="0"/>
<rect x="105.785" y="34.019" width="10.703" height="1.950" fill="none" stroke="#00FF00" stroke-width="0.150" />
<text x="111.136" y="35.189"  fill="#000000" text-anchor="middle" font-size="0.80" font-family="sans" font-style="normal" font-weight="400">
messageGetQueryencoder</text>
<line x1="99.357" y1="30.813" x2="99.357" y2="27.026" stroke="#000000" stroke-width="0.150" />
<polygon fill="#000000" stroke="none" stroke-width="0.150" points="99.607,27.026 99.357,26.526 99.107,27.026 "/>
<polygon fill="none" stroke="#000000" stroke-width="0.150"  points="99.607,27.026 99.357,26.526 99.107,27.026 "/>
<line x1="105.785" y1="34.994" x2="103.711" y2="33.213" stroke="#000000" stroke-width="0.150" />
<polygon fill="#000000" stroke="none" stroke-width="0.150" points="103.874,33.023 103.331,32.887 103.548,33.402 "/>
<polygon fill="none" stroke="#000000" stroke-width="0.150"  points="103.874,33.023 103.331,32.887 103.548,33.402 "/>
<line x1="122.926" y1="29.076" x2="117.220" y2="34.153" stroke="#000000" stroke-width="0.150" />
<polygon fill="#000000" stroke="none" stroke-width="0.150" points="117.054,33.966 116.846,34.485 117.386,34.339 "/>
<polygon fill="none" stroke="#000000" stroke-width="0.150"  points="117.054,33.966 116.846,34.485 117.386,34.339 "/>
<line x1="123.437" y1="36.656" x2="117.037" y2="34.676" stroke="#000000" stroke-width="0.150" />
<polygon fill="#000000" stroke="none" stroke-width="0.150" points="117.111,34.438 116.559,34.529 116.963,34.915 "/>
<polygon fill="none" stroke="#000000" stroke-width="0.150"  points="117.111,34.438 116.559,34.529 116.963,34.915 "/>
<rect x="125.576" y="28.225" width="11.033" height="1.950" fill="#FFFFFF" stroke="none" stroke-width="0"/>
<rect x="125.576" y="28.225" width="11.033" height="1.950" fill="none" stroke="#00FF00" stroke-width="0.150" />
<text x="131.093" y="29.395"  fill="#000000" text-anchor="middle" font-size="0.80" font-family="sans" font-style="normal" font-weight="400">
testButtonGetSingleprop</text>
<line x1="125.576" y1="29.200" x2="123.878" y2="29.104" stroke="#000000" stroke-width="0.150" />
<polygon fill="#000000" stroke="none" stroke-width="0.150" points="123.892,28.854 123.379,29.076 123.864,29.354 "/>
<polygon fill="none" stroke="#000000" stroke-width="0.150"  points="123.892,28.854 123.379,29.076 123.864,29.354 "/>
<line x1="125.621" y1="37.169" x2="124.081" y2="37.053" stroke="#000000" stroke-width="0.150" />
<polygon fill="#000000" stroke="none" stroke-width="0.150" points="124.100,36.804 123.583,37.015 124.062,37.302 "/>
<polygon fill="none" stroke="#000000" stroke-width="0.150"  points="124.100,36.804 123.583,37.015 124.062,37.302 "/>
<rect x="125.621" y="36.194" width="10.442" height="1.950" fill="#FFFFFF" stroke="none" stroke-width="0"/>
<rect x="125.621" y="36.194" width="10.442" height="1.950" fill="none" stroke="#00FF00" stroke-width="0.150" />
<text x="130.842" y="37.364"  fill="#000000" text-anchor="middle" font-size="0.80" font-family="sans" font-style="normal" font-weight="400">
testButtonGetAllprop</text>
<line x1="123.306" y1="1.800" x2="125.639" y2="1.800" stroke="#000000" stroke-width="0.150" />
<polygon fill="#000000" stroke="none" stroke-width="0.150" points="125.639,2.050 126.139,1.800 125.639,1.550 "/>
<polygon fill="none" stroke="#000000" stroke-width="0.150"  points="125.639,2.050 126.139,1.800 125.639,1.550 "/>
<rect x="126.214" y="0.825" width="7.373" height="1.950" fill="#FFFFFF" stroke="none" stroke-width="0"/>
<rect x="126.214" y="0.825" width="7.373" height="1.950" fill="none" stroke="#000000" stroke-width="0.150" />
<text x="129.901" y="1.995"  fill="#000000" text-anchor="middle" font-size="0.80" font-family="sans" font-style="normal" font-weight="400">
table updater</text>
<line x1="129.901" y1="2.775" x2="129.920" y2="5.237" stroke="#000000" stroke-width="0.150" />
<polygon fill="#000000" stroke="none" stroke-width="0.150" points="129.670,5.239 129.924,5.737 130.170,5.235 "/>
<polygon fill="none" stroke="#000000" stroke-width="0.150"  points="129.670,5.239 129.924,5.737 130.170,5.235 "/>
<rect x="126.238" y="5.812" width="7.373" height="1.950" fill="#FFFFFF" stroke="none" stroke-width="0"/>
<rect x="126.238" y="5.812" width="7.373" height="1.950" fill="none" stroke="#0000FF" stroke-width="0.150" />
<text x="129.925" y="6.982"  fill="#000000" text-anchor="middle" font-size="0.80" font-family="sans" font-style="normal" font-weight="400">
googleTable</text>
<rect x="65.953" y="24.390" width="10.560" height="1.950" fill="#FFFFFF" stroke="none" stroke-width="0"/>
<rect x="65.953" y="24.390" width="10.560" height="1.950" fill="none" stroke="#8B6914" stroke-width="0.150" />
<text x="71.233" y="25.560"  fill="#000000" text-anchor="middle" font-size="0.80" font-family="sans" font-style="normal" font-weight="400">
calback_http</text>
<line x1="69.486" y1="6.682" x2="73.485" y2="9.625" stroke="#000000" stroke-width="0.150" />
<polygon fill="#000000" stroke="none" stroke-width="0.150" points="73.337,9.826 73.888,9.921 73.633,9.424 "/>
<polygon fill="none" stroke="#000000" stroke-width="0.150"  points="73.337,9.826 73.888,9.921 73.633,9.424 "/>
<polyline fill="none" stroke="#000000" stroke-width="0.150"  points="77.448,10.966 76.589,10.966 76.589,17.131 78.463,17.131 "/>
<polygon fill="#000000" stroke="none" stroke-width="0.150" points="78.463,17.381 78.963,17.131 78.463,16.881 "/>
<polygon fill="none" stroke="#000000" stroke-width="0.150"  points="78.463,17.381 78.963,17.131 78.463,16.881 "/>
<rect x="81.273" y="9.032" width="3.678" height="1.950" fill="#FFFFFF" stroke="none" stroke-width="0"/>
<rect x="81.273" y="9.032" width="3.678" height="1.950" fill="none" stroke="#0000FF" stroke-width="0.150" />
<text x="83.112" y="10.202"  fill="#000000" text-anchor="middle" font-size="0.80" font-family="sans" font-style="normal" font-weight="400">
server()</text>
<line x1="123.152" y1="-0.317" x2="123.152" y2="47.683" stroke="#000000" stroke-width="0.400" />
<line x1="82.945" y1="11.057" x2="82.368" y2="14.693" stroke="#000000" stroke-width="0.150" />
<polygon fill="#000000" stroke="none" stroke-width="0.150" points="82.121,14.654 82.290,15.187 82.615,14.732 "/>
<polygon fill="none" stroke="#000000" stroke-width="0.150"  points="82.121,14.654 82.290,15.187 82.615,14.732 "/>
<rect x="85.400" y="9.223" width="6.913" height="2.750" fill="#FFFFFF" stroke="none" stroke-width="0"/>
<rect x="85.400" y="9.223" width="6.913" height="2.750" fill="none" stroke="#0000FF" stroke-width="0.150" />
<text x="88.856" y="10.793"  fill="#000000" text-anchor="middle" font-size="0.80" font-family="sans" font-style="normal" font-weight="400">
server_init(..)</text>
<polyline fill="none" stroke="#000000" stroke-width="0.150"  points="82.278,19.000 82.278,23.133 71.233,23.133 71.233,23.742 "/>
<polygon fill="#000000" stroke="none" stroke-width="0.150" points="70.983,23.742 71.233,24.242 71.483,23.742 "/>
<polygon fill="none" stroke="#000000" stroke-width="0.150"  points="70.983,23.742 71.233,24.242 71.483,23.742 "/>
<line x1="88.856" y1="11.973" x2="88.774" y2="14.686" stroke="#000000" stroke-width="0.150" />
<polygon fill="#000000" stroke="none" stroke-width="0.150" points="88.524,14.679 88.759,15.186 89.024,14.694 "/>
<polygon fill="none" stroke="#000000" stroke-width="0.150"  points="88.524,14.679 88.759,15.186 89.024,14.694 "/>
<rect x="9.034" y="21.073" width="8.185" height="1.950" fill="#FFFFFF" stroke="none" stroke-width="0"/>
<rect x="9.034" y="21.073" width="8.185" height="1.950" fill="none" stroke="#0000FF" stroke-width="0.150" />
<text x="13.126" y="22.243"  fill="#000000" text-anchor="middle" font-size="0.80" font-family="sans" font-style="normal" font-weight="400">
time_stamper(where)</text>
<line x1="13.170" y1="17.913" x2="13.144" y2="20.423" stroke="#000000" stroke-width="0.150" />
<polygon fill="#000000" stroke="none" stroke-width="0.150" points="12.894,20.421 13.138,20.923 13.394,20.426 "/>
<polygon fill="none" stroke="#000000" stroke-width="0.150"  points="12.894,20.421 13.138,20.923 13.394,20.426 "/>
<path stroke="none" fill="#FFFFFF" stroke-width="0.150" d="M 22.995,26.096 C 23.865,25.675 24.300,25.534 25.170,25.534 C 26.040,25.534 26.475,25.675 27.345,26.096 L 27.345,28.344 C 26.475,28.765 26.040,28.905 25.170,28.905 C 24.300,28.905 23.865,28.765 22.995,28.344 L 22.995,26.096 "/>
<path stroke="#000000" fill="none" stroke-width="0.150"  d="M 22.995,26.096 C 23.865,25.675 24.300,25.534 25.170,25.534 C 26.040,25.534 26.475,25.675 27.345,26.096 L 27.345,28.344 C 26.475,28.765 26.040,28.905 25.170,28.905 C 24.300,28.905 23.865,28.765 22.995,28.344 L 22.995,26.096 "/>
<path stroke="#000000" fill="none" stroke-width="0.150"  d="M 22.995,26.096 C 23.865,26.518 24.300,26.658 25.170,26.658 C 26.040,26.658 26.475,26.518 27.345,26.096 "/>
<text x="25.170" y="27.701"  fill="#000000" text-anchor="middle" font-size="0.80" font-family="sans" font-style="normal" font-weight="400">
Server State</text>
<text x="82.193" y="4.829"  fill="#000000" text-anchor="start" font-size="0.80" font-family="sans" font-style="normal" font-weight="400">
From START STOP INIT</text>
<line x1="85.267" y1="5.330" x2="85.503" y2="14.686" stroke="#000000" stroke-width="0.150" />
<polygon fill="#000000" stroke="none" stroke-width="0.150" points="85.253,14.693 85.516,15.186 85.753,14.680 "/>
<polygon fill="none" stroke="#000000" stroke-width="0.150"  points="85.253,14.693 85.516,15.186 85.753,14.680 "/>
<line x1="84.419" y1="5.330" x2="83.559" y2="8.408" stroke="#000000" stroke-width="0.150" />
<polygon fill="#000000" stroke="none" stroke-width="0.150" points="83.318,8.340 83.424,8.889 83.799,8.475 "/>
<polygon fill="none" stroke="#000000" stroke-width="0.150"  points="83.318,8.340 83.424,8.889 83.799,8.475 "/>
<line x1="86.116" y1="5.330" x2="88.525" y2="8.753" stroke="#000000" stroke-width="0.150" />
<polygon fill="#000000" stroke="none" stroke-width="0.150" points="88.321,8.897 88.813,9.162 88.730,8.609 "/>
<polygon fill="none" stroke="#000000" stroke-width="0.150"  points="88.321,8.897 88.813,9.162 88.730,8.609 "/>
<text x="13.636" y="31.356"  fill="#000000" text-anchor="start" font-size="0.80" font-family="sans" font-style="normal" font-weight="400">
to::</text>
<text x="13.636" y="32.156"  fill="#000000" text-anchor="start" font-size="0.80" font-family="sans" font-style="normal" font-weight="400">
CONECTION INIT</text>
<text x="13.636" y="32.956"  fill="#000000" text-anchor="start" font-size="0.80" font-family="sans" font-style="normal" font-weight="400">
SERVER</text>
<text x="13.636" y="33.756"  fill="#000000" text-anchor="start" font-size="0.80" font-family="sans" font-style="normal" font-weight="400">
LIBWEBSOCKETS</text>
<line x1="9.423" y1="39.391" x2="12.643" y2="32.827" stroke="#000000" stroke-width="0.150" />
<polygon fill="#000000" stroke="none" stroke-width="0.150" points="12.868,32.938 12.863,32.379 12.419,32.717 "/>
<polygon fill="none" stroke="#000000" stroke-width="0.150"  points="12.868,32.938 12.863,32.379 12.419,32.717 "/>
<line x1="9.907" y1="28.173" x2="12.642" y2="31.659" stroke="#000000" stroke-width="0.150" />
<polygon fill="#000000" stroke="none" stroke-width="0.150" points="12.445,31.813 12.950,32.052 12.838,31.504 "/>
<polygon fill="none" stroke="#000000" stroke-width="0.150"  points="12.445,31.813 12.950,32.052 12.838,31.504 "/>
<line x1="9.253" y1="31.140" x2="12.101" y2="32.081" stroke="#000000" stroke-width="0.150" />
<polygon fill="#000000" stroke="none" stroke-width="0.150" points="12.022,32.318 12.575,32.238 12.179,31.843 "/>
<polygon fill="none" stroke="#000000" stroke-width="0.150"  points="12.022,32.318 12.575,32.238 12.179,31.843 "/>
<polyline fill="none" stroke="#000000" stroke-width="0.150"  points="133.587,1.800 136.462,1.800 136.462,6.300 134.186,6.300 "/>
<polygon fill="#000000" stroke="none" stroke-width="0.150" points="134.186,6.050 133.686,6.300 134.186,6.550 "/>
<polygon fill="none" stroke="#000000" stroke-width="0.150"  points="134.186,6.050 133.686,6.300 134.186,6.550 "/>
<line x1="11.567" y1="15.764" x2="8.734" y2="13.878" stroke="#000000" stroke-width="0.150" stroke-dasharray="0.10,0.10"/>
<rect x="2.512" y="33.064" width="6.955" height="1.950" fill="#FFFFFF" stroke="none" stroke-width="0"/>
<rect x="2.512" y="33.064" width="6.955" height="1.950" fill="none" stroke="#000000" stroke-width="0.150" />
<text x="5.990" y="34.234"  fill="#000000" text-anchor="middle" font-size="0.80" font-family="sans" font-style="normal" font-weight="400">
wolf_run()</text>
<line x1="-0.031" y1="34.127" x2="1.937" y2="34.059" stroke="#000000" stroke-width="0.150" />
<polygon fill="#000000" stroke="none" stroke-width="0.150" points="1.946,34.308 2.437,34.041 1.929,33.809 "/>
<polygon fill="none" stroke="#000000" stroke-width="0.150"  points="1.946,34.308 2.437,34.041 1.929,33.809 "/>
<line x1="5.912" y1="32.990" x2="5.895" y2="32.762" stroke="#000000" stroke-width="0.150" />
<polygon fill="#000000" stroke="none" stroke-width="0.150" points="6.145,32.744 5.858,32.263 5.646,32.780 "/>
<polygon fill="none" stroke="#000000" stroke-width="0.150"  points="6.145,32.744 5.858,32.263 5.646,32.780 "/>
<polyline fill="none" stroke="#000000" stroke-width="0.150"  points="46.164,15.796 46.164,5.836 61.132,5.836 "/>
<polygon fill="#000000" stroke="none" stroke-width="0.150" points="61.132,6.086 61.632,5.836 61.132,5.586 "/>
<polygon fill="none" stroke="#000000" stroke-width="0.150"  points="61.132,6.086 61.632,5.836 61.132,5.586 "/>
<rect x="108.391" y="12.758" width="11.315" height="1.950" fill="#FFFFFF" stroke="none" stroke-width="0"/>
<rect x="108.391" y="12.758" width="11.315" height="1.950" fill="none" stroke="#00FF00" stroke-width="0.150" />
<text x="114.048" y="13.928"  fill="#000000" text-anchor="middle" font-size="0.80" font-family="sans" font-style="normal" font-weight="400">
init_connection</text>
<line x1="112.599" y1="14.783" x2="102.688" y2="21.963" stroke="#000000" stroke-width="0.150" />
<polygon fill="#000000" stroke="none" stroke-width="0.150" points="102.541,21.760 102.283,22.256 102.834,22.165 "/>
<polygon fill="none" stroke="#000000" stroke-width="0.150"  points="102.541,21.760 102.283,22.256 102.834,22.165 "/>
<line x1="134.352" y1="14.380" x2="120.501" y2="13.633" stroke="#000000" stroke-width="0.150" />
<polygon fill="#000000" stroke="none" stroke-width="0.150" points="120.514,13.383 120.002,13.606 120.487,13.882 "/>
<polygon fill="none" stroke="#000000" stroke-width="0.150"  points="120.514,13.383 120.002,13.606 120.487,13.882 "/>
<rect x="125.998" y="11.933" width="11.033" height="2.750" fill="#FFFFFF" stroke="none" stroke-width="0"/>
<rect x="125.998" y="11.933" width="11.033" height="2.750" fill="none" stroke="#00FF00" stroke-width="0.150" />
<text x="131.515" y="13.503"  fill="#000000" text-anchor="middle" font-size="0.80" font-family="sans" font-style="normal" font-weight="400">
on load</text>
</svg>